<!-- Generator: Adobe Illustrator 20.1.0, SVG Export Plug-In  -->
<svg version="1.1"
	 xmlns="http://www.w3.org/2000/svg" xmlns:xlink="http://www.w3.org/1999/xlink" xmlns:a="http://ns.adobe.com/AdobeSVGViewerExtensions/3.0/"
	 x="0px" y="0px" width="84.7px" height="19.7px" viewBox="0 0 84.7 19.7" style="enable-background:new 0 0 84.7 19.7;"
	 xml:space="preserve">
<style type="text/css">
	.st0{fill:#303030;}
	.st1{fill:#00E03F;}
</style>
<defs>
</defs>
<path class="st0" d="M80.4,19.7H4.3c-2.4,0-4.3-1.9-4.3-4.3V4.3C0,1.9,1.9,0,4.3,0h76.1c2.4,0,4.3,1.9,4.3,4.3v11.1
	C84.7,17.7,82.8,19.7,80.4,19.7z"/>
<path class="st1" d="M9,10.9l-0.4,3.6L8,15.9c-0.4-0.1-0.7-0.4-0.8-0.9l0.5-4.8l0.4-0.3L9,10.9z M9.6,5.3L9.3,8.5l-1.1,1L7.9,9.2
	l0.5-4.4L9.6,5.3z M13.7,5H9.7L8.4,4.5C8.5,4,8.8,3.7,9.3,3.6h5.1L13.7,5z M13.7,9.1l0.6,0.7l-0.7,0.7H9.1L8.5,9.7l0.8-0.7H13.7z
	 M14.6,9.9l0.3,0.3L14.4,15c-0.2,0.5-0.5,0.7-0.9,0.9l-0.4-1.4l0.4-3.6L14.6,9.9z M13.7,8.5L14.1,5l0.6-1.4c0.4,0.1,0.7,0.4,0.8,0.9
	L15,9.2l-0.4,0.3L13.7,8.5z"/>
<path class="st1" d="M22.5,15.9h-5.6c-0.4-0.1-0.7-0.4-0.8-0.9l1.4-0.5h4.6L22.5,15.9z M16.1,14.7l0.5-4.4L17,9.9l0.9,1l-0.3,3.2
	L16.1,14.7z M18.5,5.3l-0.3,3.2l-1.1,1l-0.3-0.3l0.5-4.4L18.5,5.3z M23.1,5h-4.6l-1.3-0.5c0.2-0.5,0.5-0.7,0.9-0.9h5.6L23.1,5z"/>
<path class="st1" d="M31.3,15.9h-5.6c-0.4-0.1-0.7-0.4-0.8-0.9l1.4-0.5H31L31.3,15.9z M25,14.7l0.5-4.4l0.4-0.3l0.9,1l-0.3,3.2
	L25,14.7z M27.3,5.3L27,8.5l-1.1,1l-0.3-0.3L26,4.8L27.3,5.3z M32,5h-4.6l-1.3-0.5C26.2,4,26.5,3.7,27,3.6h5.6L32,5z"/>
<path class="st1" d="M39.7,15.9h-5.1c-0.4-0.1-0.7-0.4-0.8-0.9l1.4-0.5h4.1L39.7,15.9z M33.8,14.7l0.5-4.4l0.4-0.3l0.9,1l-0.3,3.2
	L33.8,14.7z M34.7,9.7l-0.3-0.3l0.5-4.8c0.2-0.5,0.5-0.7,0.9-0.9l0.4,1.4l-0.4,3.6L34.7,9.7z M41.1,9.9l0.3,0.3L40.9,15
	c-0.2,0.5-0.5,0.7-0.9,0.9l-0.4-1.4l0.4-3.6L41.1,9.9z M40.3,8.5L40.6,5l0.6-1.4C41.7,3.7,42,4,42,4.5l-0.5,4.8l-0.4,0.3L40.3,8.5z"
	/>
<path class="st1" d="M47.1,13.1h-1.4l0.2-1.4h1.4L47.1,13.1z M47.7,7.7h-1.4l0.1-1.4h1.4L47.7,7.7z"/>
<path class="st1" d="M57.6,15.2l-0.7,0.7h-5.4l0.1-0.9l1.4-0.5H57L57.6,15.2z M51.5,14.7l0.5-4.4l0.4-0.3l0.9,1l-0.3,3.2L51.5,14.7z
	 M53.9,5.3l-0.3,3.2l-1.1,1l-0.3-0.3l0.5-4.4L53.9,5.3z M58,5h-4.1l-1.3-0.5l0.1-0.9h5.4l0.6,0.7L58,5z M57.9,9.1l0.6,0.7l-0.7,0.7
	h-4.4l-0.6-0.7l0.8-0.7H57.9z M58.8,9.9l0.3,0.3l-0.4,3.9L57.8,15l-0.5-0.5l0.4-3.6L58.8,9.9z M58,8.5L58.3,5l0.6-0.5l0.8,0.9
	l-0.4,3.9l-0.4,0.3L58,8.5z"/>
<path class="st1" d="M66.2,15.9h-5.1c-0.4-0.1-0.7-0.4-0.8-0.9l1.4-0.5h4.1L66.2,15.9z M60.4,14.7l0.5-4.4l0.4-0.3l0.9,1l-0.3,3.2
	L60.4,14.7z M61.2,9.7l-0.3-0.3l0.5-4.8c0.2-0.5,0.5-0.7,0.9-0.9l0.4,1.4l-0.4,3.6L61.2,9.7z M67.7,9.9l0.3,0.3L67.5,15
	c-0.2,0.5-0.5,0.7-0.9,0.9l-0.4-1.4l0.4-3.6L67.7,9.9z M66.8,8.5L67.2,5l0.6-1.4c0.4,0.1,0.7,0.4,0.8,0.9l-0.5,4.8l-0.4,0.3
	L66.8,8.5z"/>
<path class="st1" d="M75.1,15.9H70c-0.4-0.1-0.7-0.4-0.8-0.9l1.4-0.5h4.1L75.1,15.9z M71.6,5.3l-0.3,3.2l-1.1,1l-0.3-0.3l0.5-4.4
	L71.6,5.3z M71.6,5l-1.3-0.5c0.2-0.5,0.5-0.7,0.9-0.9h5.4c0.4,0.1,0.7,0.4,0.8,0.9L76,5H71.6z M75.6,9.1l0.6,0.7l-0.7,0.7H71
	l-0.6-0.7l0.8-0.7H75.6z M76.5,9.9l0.3,0.3L76.3,15c-0.2,0.5-0.5,0.7-0.9,0.9L75,14.5l0.4-3.6L76.5,9.9z"/>
</svg>
